# xmcd CD database file
#
# Track frame offsets:
#	150
#	16096
#	32464
#	54309
#	70599
#	89047
#	104515
#	117556
#	132200
#	149728
#	167225
#	183176
#	199222
#	215581
#	231577
#	250567
#	270139
#	288000
#	305104
#
# Disc length: 4352 seconds
#
# Revision: 5
# Processed by: cddbd v1.4PL0 Copyright (c) Steve Scherf et al.
# Submitted via: CDex 1.40Release
#
DISCID=1510fe13
DTITLE=Shania Twain - Come On Over
DYEAR=1900
DGENRE=
TTITLE0=You're Still The One
TTITLE1=When
TTITLE2=From This Moment On
TTITLE3=Black Eyes, Blue Tears
TTITLE4=I Won't Leave You Lonely
TTITLE5=I'm Holdin' On To Love (To Save My Life)
TTITLE6=Come On Over
TTITLE7=You've Got A Way
TTITLE8=Whatever You Do! Don't!
TTITLE9=Man! I Feel Like A Woman!
TTITLE10=Love Gets Me Every Time
TTITLE11=Don't Be Stupid (You Know I Love You)
TTITLE12=That Don't Impress Me Much
TTITLE13=Honey, I'm Home
TTITLE14=If You Wanna Touch Her, Ask!
TTITLE15=Rock This Country!
TTITLE16=That's Don't Impress Me Much 9Dance Mix Edit)
TTITLE17=God Bless The Child (Single Mix)
TTITLE18=Don't Be Stupid (You Know I Love You) (Extended Danec Mix)
EXTD=
EXTT0=
EXTT1=
EXTT2=
EXTT3=
EXTT4=
EXTT5=
EXTT6=
EXTT7=
EXTT8=
EXTT9=
EXTT10=
EXTT11=
EXTT12=
EXTT13=
EXTT14=
EXTT15=
EXTT16=
EXTT17=
EXTT18=
PLAYORDER=
